<?xml version="1.0" encoding="UTF-8"?>
<svg id="Layer_1" xmlns="http://www.w3.org/2000/svg" version="1.1" viewBox="0 0 3000 3000">
  <!-- Generator: Adobe Illustrator 29.2.0, SVG Export Plug-In . SVG Version: 2.1.0 Build 108)  -->
  <defs>
    <style>
      .st0 {
        fill: #fff;
        fill-rule: evenodd;
      }
    </style>
  </defs>
  <path class="st0" d="M1493.2,759.8c-593.7,0-742.1,148.4-742.1,742.1s148.4,742.1,742.1,742.1,742.1-148.4,742.1-742.1-148.4-742.1-742.1-742.1ZM1999.2,2007.9c-78.6,78.6-229.9,112.1-506,112.1s-427.4-33.5-506-112.1c-78.6-78.6-112.1-229.9-112.1-506s33.5-427.4,112.1-506c78.6-78.6,229.9-112.1,506-112.1s427.4,33.5,506,112.1c78.6,78.6,112.1,229.9,112.1,506s-33.5,427.4-112.1,506Z"/>
  <path class="st0" d="M1527.2,1175.7c-58.9,0-112.9,20.6-155.4,55l-93.6-54.6-66.2,113.5,67.4,38.9v499.6h131.1v-187.1c34.8,18.6,74.5,29.2,116.7,29.2,136.6,0,247.3-110.7,247.3-247.3s-110.7-247.3-247.3-247.3ZM1527.2,1539.6c-64.4,0-116.6-52.2-116.6-116.6s52.2-116.6,116.6-116.6,116.6,52.2,116.6,116.6-52.2,116.6-116.6,116.6Z"/>
</svg>