<?xml version="1.0" encoding="UTF-8"?>
<svg id="Layer_1" xmlns="http://www.w3.org/2000/svg" version="1.1" viewBox="0 0 3000 1234.7">
  <!-- Generator: Adobe Illustrator 29.2.0, SVG Export Plug-In . SVG Version: 2.1.0 Build 108)  -->
  <defs>
    <style>
      .st0 {
        fill: #fff;
      }
    </style>
  </defs>
  <path class="st0" d="M2025,492.9c-29.6,0-56.1,11.7-72.2,24.3l-3.9-20.9h-58.3v237.8h65.2v-166.9c11.3-8.3,27.8-16.1,43.9-16.1s25.7,10.9,25.7,26.5v156.5h65.2v-174.8c0-40.9-20-66.5-65.6-66.5Z"/>
  <path class="st0" d="M806.7,492.5c-67.6,0-122.3,54.8-122.3,122.3s54.8,122.3,122.3,122.3,122.3-54.8,122.3-122.3-54.8-122.3-122.3-122.3ZM806.7,672.5c-31.9,0-57.7-25.8-57.7-57.7s25.8-57.7,57.7-57.7,57.7,25.8,57.7,57.7-25.8,57.7-57.7,57.7Z"/>
  <path class="st0" d="M543.8,492.5c-29.2,0-56,10.3-77.1,27.3l-46.6-27.2-32.9,56.5,33.5,19.4v250.3h65.2v-96.1c17.2,9.2,36.9,14.5,57.8,14.5,67.6,0,122.3-54.8,122.3-122.3s-54.8-122.3-122.3-122.3ZM543.8,672.5c-31.9,0-57.7-25.8-57.7-57.7s25.8-57.7,57.7-57.7,57.7,25.8,57.7,57.7-25.8,57.7-57.7,57.7Z"/>
  <path class="st0" d="M2337,492.5l-41.8,24.4c-16.5-12.3-39.5-21-71.6-21s-.1,0-.2,0c0,0,0,0-.1,0-65.9,0-111.8,42.5-111.8,101.1s42.3,90.1,110,90.1,49.3,17.3,49.3,42-18,34.1-45.5,34.2c-20.8,0-35.3-10.7-40.5-26l-1.2-3.4h-71.5l.5,3.4c6.1,49.3,50.4,81.8,111.6,81.8s.1,0,.2,0c0,0,0,0,.1,0,65.4,0,111.8-33.7,111.8-82.2s-12.3-48-36.3-62.8c23.5-18,36.6-45.2,36.6-77.1,0,0-.4-11.1-4.9-26l38.2-22-32.9-56.5ZM2223.8,638.7c-26,0-47.1-21.1-47.1-47.2s21.1-47.2,47.1-47.2,47.1,21.1,47.1,47.2-21.1,47.2-47.1,47.2Z"/>
  <rect class="st0" x="1304.8" y="409.8" width="65.2" height="323.9"/>
  <path class="st0" d="M1234.4,434.3l-63.9,11.5v50.1h-26.2v53.1h24.9v120.6c0,47.8,25.2,67.4,71.7,67.4s26.6-1.7,37-3.5v-51.3c-7,0-12.3,0-18.3,0-20,0-25.2-10-25.2-30.9v-102.4h43.5v-53.1h-43.5v-61.6Z"/>
  <path class="st0" d="M2592.8,617.2c0-74.8-30.3-124.8-107.5-124.8s-112.6,51.7-112.6,124.8,49.3,120,122.2,120,66.3-6.1,84.7-12.6l-9.8-51.3c-17.1,5.2-44.6,10-70.2,10s-55-10-57.2-44.3h150.4v-21.7ZM2442.5,591.2c2.6-34.8,22.4-46.5,43.3-46.5s43.1,12.6,44.8,46.5h-88.1Z"/>
  <path class="st0" d="M1519.5,492.5c-67.6,0-122.3,54.8-122.3,122.3s54.8,122.3,122.3,122.3,122.3-54.8,122.3-122.3-54.8-122.3-122.3-122.3ZM1519.5,672.5c-31.9,0-57.7-25.8-57.7-57.7s25.8-57.7,57.7-57.7,57.7,25.8,57.7,57.7-25.8,57.7-57.7,57.7Z"/>
  <path class="st0" d="M1126.8,645.1c-1-4.1-2.5-8-4.3-11.5-.4-.9-.9-1.8-1.4-2.6-.7-1.2-1.5-2.4-2.2-3.5-.9-1.3-1.8-2.5-2.8-3.8-.6-.8-1.3-1.5-1.9-2.2-3.3-3.7-7.1-7-11.4-10-1.7-1.2-3.5-2.4-5.3-3.5-10.2-6.2-22.4-11.3-36-16.2l-23.3-8.4c-17.2-6.2-26-12.3-26-22s7.1-16.7,23.4-16.7,21.6,2.9,32.5,7.3c2.8,1.1,5.5,2.4,8.2,3.7,9.1,4.4,17.8,9.8,25.3,15.3l25.1-49.3c-15.5-12.2-37.2-22.5-62.9-26.8-4.3-.7-8.7-1.3-13.2-1.7-4.5-.4-9.1-.6-13.8-.6s-3.2,0-4.7,0c-.5,0-1,0-1.5,0-1.1,0-2.1,0-3.1.1-.6,0-1.2,0-1.7.1-1,0-1.9.1-2.8.2-.6,0-1.2.1-1.8.2-.9,0-1.9.2-2.8.3-.6,0-1.1.1-1.7.2-1,.1-2,.3-3,.5-.4,0-.9.1-1.3.2-1.4.2-2.8.5-4.2.8-.4,0-.8.2-1.2.3-1,.2-2,.4-2.9.6-.6.1-1.1.3-1.7.4-.8.2-1.6.4-2.4.6-.6.2-1.2.3-1.7.5-.7.2-1.5.4-2.2.7-.6.2-1.2.4-1.7.6-.7.2-1.4.5-2.1.7-.6.2-1.1.4-1.7.6-.7.3-1.5.6-2.2.9-.7.3-1.5.6-2.2.9-.9.4-1.7.7-2.5,1.1-.6.3-1.1.6-1.7.8-.6.3-1.1.6-1.7.8-.6.3-1.2.6-1.7.9-.5.3-1,.6-1.5.8-.6.3-1.2.7-1.7,1-.5.3-.9.6-1.4.9-.6.4-1.1.7-1.7,1.1-.4.3-.8.6-1.2.8-.6.4-1.2.8-1.7,1.3-.2.2-.4.3-.6.5-1.3,1-2.6,2.1-3.8,3.1-.2.2-.5.4-.7.6-.6.5-1.1,1-1.6,1.5-.3.3-.6.5-.8.8-.5.5-1,1.1-1.5,1.6-.3.3-.5.6-.8.9-.5.6-1,1.1-1.5,1.7-.2.3-.5.6-.7.8-.5.6-1,1.2-1.4,1.8-.1.2-.3.4-.4.6-1.6,2.2-3.1,4.5-4.4,7-.1.2-.2.4-.3.6-.4.7-.7,1.4-1.1,2.1-.1.3-.3.6-.4.9-.3.7-.6,1.4-.9,2.2-.1.3-.3.6-.4.9-.3.7-.6,1.5-.8,2.2,0,.3-.2.6-.3.8-.3.8-.5,1.6-.8,2.4,0,0,0,0,0,0h0c-1.7,5.9-2.6,12.2-2.6,18.9,0,20.1,7.3,35.9,19.7,47.7,0,0,0,0,0,0,1,.9,2,1.8,3,2.7.2.2.4.3.6.5,1,.8,2.1,1.7,3.1,2.5.2.1.3.2.5.3,1,.8,2.1,1.5,3.2,2.2.1,0,.2.2.4.2,1.1.7,2.3,1.5,3.5,2.2.2.1.5.3.7.4,1.2.7,2.4,1.4,3.7,2,.1,0,.3.1.4.2,1.2.6,2.4,1.2,3.6,1.7.2.1.5.2.7.3,1.3.6,2.6,1.1,3.9,1.7.3.1.6.2.8.3,1.4.5,2.8,1.1,4.2,1.6,0,0,0,0,0,0l31.7,11c6.3,2.1,11.5,4,15.9,5.8,1.7.7,3.3,1.4,4.8,2.1,8.5,4.1,12.2,8.4,12.2,15.3s-1.1,6.6-3.4,9c0,0,0,0-.1.1-1.3,1.4-3.1,2.5-5.3,3.4-.6.2-1.1.4-1.8.6-3.7,1.2-8.4,1.8-14.1,1.8-22.4,0-55.1-8.2-77.1-26.1-4.9,18.4-13.2,35.4-24.1,50.2,27.7,21.6,60.3,33.3,97.5,33.3s50.2-6,67.6-17.9c.9-.6,1.8-1.3,2.7-2,2.8-2.1,5.4-4.3,7.8-6.6,1.4-1.4,2.8-2.9,4.1-4.5,1.2-1.5,2.4-3,3.5-4.5,1.5-2.1,2.9-4.4,4.1-6.7,1.2-2.3,2.3-4.8,3.3-7.3,2.8-7.6,4.3-16.1,4.3-25.4s-.1-4.9-.3-7.2c-.3-3.5-.9-6.8-1.7-9.9Z"/>
  <path class="st0" d="M1799.4,653c-.7,18.2-16.6,31.3-34.6,31.3s-33.9-14.7-34.6-31.2v-156.9h-65.4v153.5c0,75,54.3,87.8,100,87.8s100-12.9,100-87.8v-153.5h-65.4v156.7Z"/>
</svg>